<svg xmlns="http://www.w3.org/2000/svg" width="97.28" height="38.4" viewBox="114.2 51.24 97.28 38.4"><path d="M138 53.4c.48 0 .82.107 1.02.32.2.213.3.573.3 1.08v5.72c0 1.68-.36 2.927-1.08 3.74-.72.813-1.827 1.22-3.32 1.22H130c-.507 0-.867-.107-1.08-.32-.213-.213-.32-.573-.32-1.08V56.2c0-.587-.227-.88-.68-.88-.32 0-.56.107-.72.32v11.04h7.6c.32 0 .48.147.48.44v1.04c0 .267-.16.4-.48.4h-7.6V78.6c0 .507-.1.867-.3 1.08-.2.213-.54.32-1.02.32h-8.08c-.48 0-.82-.107-1.02-.32-.2-.213-.3-.573-.3-1.08V57.96c0-.667-.053-1.153-.16-1.46a2.116 2.116 0 0 0-.56-.84c-.267-.253-.72-.593-1.36-1.02a.393.393 0 0 1-.2-.36v-.48c0-.267.16-.4.48-.4H138Zm3.76 2.76c0-.933-.133-1.647-.4-2.14-.267-.493-.76-.953-1.48-1.38-.187-.107-.3-.193-.34-.26a.5.5 0 0 1-.06-.26v-.48c0-.267.16-.4.48-.4h10.56c.507 0 .86.1 1.06.3.2.2.3.527.3.98v21.44c0 .453.04.76.12.92.08.16.213.24.4.24.24 0 .407-.093.5-.28.093-.187.193-.613.3-1.28.053-.453.107-.727.16-.82.053-.093.16-.14.32-.14h.68c.16 0 .273.093.34.28.067.187.1.507.1.96 0 2.133-.573 3.773-1.72 4.92-1.147 1.147-2.787 1.72-4.92 1.72-2.053 0-3.633-.58-4.74-1.74-1.107-1.16-1.66-2.82-1.66-4.98v-17.6Zm14.04 7a3.08 3.08 0 0 0-.66-1.12c-.28-.293-.7-.613-1.26-.96-.267-.16-.4-.333-.4-.52v-.48c0-.267.16-.4.48-.4h6.24c1.813 0 3.153.14 4.02.42.867.28 1.547.767 2.04 1.46.493.693.967 1.72 1.42 3.08l3.84 11.6c.133.133.293.2.48.2.4 0 .6-.227.6-.68 0-.267-.107-.707-.32-1.32l-3.6-11c-.347-1.067-.653-1.76-.92-2.08-.24-.293-.393-.487-.46-.58a.57.57 0 0 1-.1-.34v-.36c0-.267.16-.4.48-.4H179c.96 0 1.44.347 1.44 1.04 0 .64-.68 2.827-2.04 6.56-1.36 3.733-3.213 8.48-5.56 14.24-.853 2.107-1.693 3.74-2.52 4.9-.827 1.16-1.74 1.987-2.74 2.48-1 .493-2.18.74-3.54.74-1.973 0-3.567-.44-4.78-1.32-1.213-.88-1.82-2.04-1.82-3.48 0-1.253.493-2.267 1.48-3.04.987-.773 2.267-1.16 3.84-1.16 1.467 0 2.667.353 3.6 1.06.933.707 1.4 1.62 1.4 2.74 0 .853-.287 1.513-.86 1.98-.573.467-1.38.7-2.42.7a.794.794 0 0 0-.08.36c0 .373.307.56.92.56 1.04 0 1.907-.353 2.6-1.06.693-.707 1.04-1.593 1.04-2.66 0-1.253-.44-2.287-1.32-3.1-.88-.813-2.16-1.367-3.84-1.66-.96-.16-1.587-.373-1.88-.64-.293-.267-.6-.853-.92-1.76l-5.2-14Zm31.76-3.56c0-.32-.08-.56-.24-.72-.747.72-1.6 1.08-2.56 1.08-.987 0-1.793-.327-2.42-.98s-.94-1.5-.94-2.54c0-1.12.38-2.02 1.14-2.7.76-.68 1.767-1.02 3.02-1.02 1.307 0 2.347.407 3.12 1.22.773.813 1.16 1.9 1.16 3.26 0 .96-.113 1.773-.34 2.44-.227.667-.607 1.307-1.14 1.92-.453.507-1.127.967-2.02 1.38-.893.413-1.687.62-2.38.62-.213 0-.347-.12-.4-.36l-.04-.16a3.648 3.648 0 0 1-.06-.28 1.258 1.258 0 0 1-.02-.2c0-.24.187-.4.56-.48 1.067-.24 1.927-.587 2.58-1.04.653-.453.98-.933.98-1.44Zm6.64.08c2.293 0 3.853.68 4.68 2.04.773-.853 1.64-1.487 2.6-1.9.96-.413 2.067-.62 3.32-.62 1.947 0 3.547.533 4.8 1.6 1.253 1.067 1.88 2.427 1.88 4.08 0 1.387-.507 2.513-1.52 3.38s-2.32 1.3-3.92 1.3c-1.573 0-2.86-.4-3.86-1.2-1-.8-1.5-1.813-1.5-3.04 0-1.04.36-1.893 1.08-2.56.72-.667 1.64-1 2.76-1a.772.772 0 0 0 .12-.4c0-.373-.28-.56-.84-.56-1.173 0-2.187.447-3.04 1.34-.853.893-1.28 1.967-1.28 3.22 0 1.067.3 2.007.9 2.82.6.813 1.46 1.46 2.58 1.94.373.16.62.34.74.54s.18.54.18 1.02v7.04c0 .853-.453 1.28-1.36 1.28h-8.12c-.827 0-1.24-.427-1.24-1.28V64.6c0-.933-.133-1.647-.4-2.14-.267-.493-.76-.953-1.48-1.38-.187-.107-.3-.193-.34-.26a.5.5 0 0 1-.06-.26v-.48c0-.267.16-.4.48-.4h2.84Z" fill="#e3f4ff" fill-rule="evenodd" data-name="Logo"/></svg>